# xmcd
#
# Track frame offsets:
#	150
#	20700
#	35400
#	56850
#	83475
#	101850
#	126675
#	141450
#	162150
#	186675
#
# Disc length: 2786 seconds
#
# Revision: 0
# Processed by: cddbd v1.5.1PL2 Copyright (c) Steve Scherf et al.
# Submitted via: audiograbber 1.81.03
#
DISCID=9a0ae00a
DTITLE=Various Artist - ROCK HITS
DYEAR=1900
DGENRE=Blues
TTITLE0=Scorpions - Intrance
TTITLE1=Iggy Pop - Loco Mosquito
TTITLE2=Meat Loaf - Bad Attitude
TTITLE3=Deep Purple - The battle Rages On
TTITLE4=The blow monkeys - Diggin your scene
TTITLE5=Flock of seaguls - Wishing (If i had a photograph of you)
TTITLE6=Stray Cats - Stray cat strut
TTITLE7=Starship - We build this city
TTITLE8=Mr.Mister - Broken Wings
TTITLE9=Accept - Metal heart
EXTD=
EXTT0=
EXTT1=
EXTT2=
EXTT3=
EXTT4=
EXTT5=
EXTT6=
EXTT7=
EXTT8=
EXTT9=
PLAYORDER=
